<svg version="1.2" xmlns="http://www.w3.org/2000/svg" viewBox="0 0 512 512" width="512" height="512"><style>.a{fill:#b63edd}</style><path fill-rule="evenodd" class="a" d="m327.8 88.6c42.2 8.7 72.2 45.4 72.2 88.4 0 40.6-25.7 74.5-65.7 86.7-7.9 2.4-10.3 2.7-24.3 2.7-14 0-16.4-0.3-24.3-2.7-31.4-9.6-54.3-32.9-62.9-64.2-1.8-6.6-2.2-10.6-2.2-23 0.1-13.4 0.4-16 2.7-23.8 10.6-34.7 39.4-60.3 73.2-65 7.6-1 24.2-0.6 31.3 0.9zm-32.4 23c-2.6 3.3-2.9 4.6-2.9 10.9 0 6.3 0.3 7.6 2.9 10.9 5.1 6.8 13.8 9.2 21.4 6.1 7.5-3.2 11.5-9 11.5-17 0-7.7-4.8-14.9-11.6-17.4-7.2-2.7-16.5 0.1-21.3 6.5zm-38.8 20.8c-7.8 2.9-11.9 9.3-11.8 18.2 0.4 16.4 21 23.5 31.9 11.1 7.4-8.4 4.9-23.2-4.7-28.2-4.4-2.3-10.9-2.7-15.4-1.1zm84.5 8.9c-7.9 16.2 8.4 32.5 24.6 24.6 13.7-6.6 13-26.6-1.2-33-9-4.1-19.1-0.5-23.4 8.4zm-41.2 38.7c2.8 9.5 15.5 10.5 19.8 1.6 2-4.3 1.1-9.5-2.1-12.5-8-7.5-20.9 0.4-17.7 10.9zm-55.1 23.9c-0.1 15.4 16.7 24 29.5 14.9 9.7-6.9 8.7-24.2-1.9-30.4-12.2-7.2-27.4 1.4-27.6 15.5zm104.7-16.5c-4.3 1.8-9.3 7.9-10.1 12.1-2.3 12.4 6.1 23 18.1 22.9 8.6-0.2 15.3-5.4 17.6-13.6 2.1-8-1.8-17.1-9.1-20.8-4.5-2.3-12-2.6-16.5-0.6zm-53.8 32.6c-6.7 7.9-3.9 22.8 5.2 27.5 12.8 6.6 27.4-1.9 27.4-16 0-7.7-4.8-14.9-11.6-17.4-7.1-2.7-15.9-0.2-21 5.9z"/><path fill-rule="evenodd" class="a" d="m158.5 125c23 7.2 40.5 24 48 46.1 15.6 45.7-16.7 93.1-65 95.6-20.4 1-39.2-6-53.7-20.2-29.5-28.8-29.6-74.6-0.3-103.6 10.1-10 21.5-16.1 36-19.5 8.7-2 26-1.2 35 1.6zm-20.5 11c-8.9 0-15.5 7.2-14.7 15.9 0.9 8 6.7 13.3 14.7 13.3 14.7 0 20.4-18.7 8.1-26.9-2.3-1.6-4.9-2.3-8.1-2.3zm-45.7 24c-11.1 6.7-8.7 23.4 3.9 26.8 16.8 4.5 26.2-19.4 10.8-27.3-4.1-2.1-10.9-1.9-14.7 0.5zm83.7-2c-8.9 0-15.5 7.2-14.7 15.9 0.9 8 6.7 13.3 14.7 13.3 14.7 0 20.4-18.7 8.1-26.9-2.3-1.6-4.9-2.3-8.1-2.3zm-37.8 28c-6.7 0-10.7 6-8.2 12.1 1.5 3.5 3.7 4.9 8 4.9 4.3 0 6.5-1.4 8-4.9 1.5-3.6 0.7-7.4-2-10.1-1.3-1.3-3.3-2-5.8-2zm-52.4 26.1c-2.9 9.9 4 18.9 14.5 18.9 14.5 0 19.8-18.6 7.6-27.1-7.6-5.3-19.3-1-22.1 8.2zm91.2-10.5c-2.7-0.7-8.4 1.5-11.3 4.2-5.2 5-6 14-1.6 19.6 7.6 9.6 23.8 6.2 26.4-5.5 1.6-7-3.2-15.9-9.3-17.3-1.5-0.4-3.4-0.9-4.2-1zm-53.6 39.7c2.5 13.5 21.5 16 27.9 3.7 3.3-6.4 1-14.6-5.4-19.1-10.2-7.3-24.9 2.7-22.5 15.4z"/><path fill-rule="evenodd" class="a" d="m214.5 240h5.4c5.3 0 5.5 0.1 13.1 7.3 16.1 15.5 35 25.2 56.9 29.3 10 1.9 28.5 2.1 38.6 0.4 10.2-1.6 26.9-7.5 35.8-12.5l7.7-4.4v73.5c0 80.3 0.2 77.4-5.8 83.7-1.5 1.6-4.4 3.7-6.4 4.8-3.7 1.9-7.3 1.9-133.7 1.7l-129.9-0.3-4.4-3c-2.3-1.7-5.3-4.9-6.5-7l-2.3-4v-148.5l3.8 2.4c39.5 24.9 90.2 18.1 121.3-16.3zm-10.6 52c-0.9 0-1 10.4-0.4 40.2 0.4 22.2 0.8 40.4 1 40.6 0.3 0.3 76.6-39.6 77.9-40.8 0.5-0.5-16.7-9.7-38.3-20.4-21.5-10.8-39.6-19.6-40.2-19.6z"/><path class="a" d="m445.3 259.1c0.4-0.1 0.7 33 0.7 73.5v73.5l-5.2-2.9c-2.9-1.6-17.1-9.1-31.6-16.7l-26.2-13.7 0.2-41.1 0.3-41.2 30.5-15.6c16.8-8.7 30.8-15.8 31.3-15.8z"/></svg>